<mxfile host="Electron" agent="Mozilla/5.0 (Windows NT 10.0; Win64; x64) AppleWebKit/537.36 (KHTML, like Gecko) draw.io/27.0.2 Chrome/134.0.6998.205 Electron/35.3.0 Safari/537.36" version="27.0.2">
  <diagram name="PÃ¡gina-1" id="yVtdcgpe5tIgke0J6Qim">
    <mxGraphModel dx="1356" dy="252" grid="1" gridSize="15" guides="1" tooltips="1" connect="0" arrows="1" fold="1" page="1" pageScale="1" pageWidth="827" pageHeight="1169" math="0" shadow="1">
      <root>
        <mxCell id="0" />
        <mxCell id="1" parent="0" />
        <mxCell id="DwEf8eSOwPUIhdM9aCwx-1" style="rounded=0;orthogonalLoop=1;jettySize=auto;html=1;endArrow=none;startFill=0;" parent="1" source="r3jI4kVJCW_O9kqCM0ux-1" target="r3jI4kVJCW_O9kqCM0ux-23" edge="1">
          <mxGeometry relative="1" as="geometry" />
        </mxCell>
        <mxCell id="DwEf8eSOwPUIhdM9aCwx-4" style="edgeStyle=none;shape=connector;rounded=0;orthogonalLoop=1;jettySize=auto;html=1;strokeColor=default;align=center;verticalAlign=middle;fontFamily=Helvetica;fontSize=11;fontColor=default;labelBackgroundColor=default;startFill=0;endArrow=none;" parent="1" source="r3jI4kVJCW_O9kqCM0ux-1" target="r3jI4kVJCW_O9kqCM0ux-28" edge="1">
          <mxGeometry relative="1" as="geometry" />
        </mxCell>
        <mxCell id="DwEf8eSOwPUIhdM9aCwx-27" style="edgeStyle=none;shape=connector;rounded=0;orthogonalLoop=1;jettySize=auto;html=1;strokeColor=default;align=center;verticalAlign=middle;fontFamily=Helvetica;fontSize=11;fontColor=default;labelBackgroundColor=default;startFill=0;endArrow=none;" parent="1" source="r3jI4kVJCW_O9kqCM0ux-1" target="-AG6pjj3mgd1ybfmxxWT-13" edge="1">
          <mxGeometry relative="1" as="geometry" />
        </mxCell>
        <mxCell id="DwEf8eSOwPUIhdM9aCwx-29" style="edgeStyle=none;shape=connector;rounded=0;orthogonalLoop=1;jettySize=auto;html=1;strokeColor=default;align=center;verticalAlign=middle;fontFamily=Helvetica;fontSize=11;fontColor=default;labelBackgroundColor=default;startFill=0;endArrow=none;" parent="1" source="r3jI4kVJCW_O9kqCM0ux-1" target="-AG6pjj3mgd1ybfmxxWT-35" edge="1">
          <mxGeometry relative="1" as="geometry" />
        </mxCell>
        <mxCell id="DwEf8eSOwPUIhdM9aCwx-30" style="edgeStyle=none;shape=connector;rounded=0;orthogonalLoop=1;jettySize=auto;html=1;strokeColor=default;align=center;verticalAlign=middle;fontFamily=Helvetica;fontSize=11;fontColor=default;labelBackgroundColor=default;startFill=0;endArrow=none;" parent="1" source="r3jI4kVJCW_O9kqCM0ux-1" target="r3jI4kVJCW_O9kqCM0ux-25" edge="1">
          <mxGeometry relative="1" as="geometry" />
        </mxCell>
        <mxCell id="DwEf8eSOwPUIhdM9aCwx-31" style="edgeStyle=none;shape=connector;rounded=0;orthogonalLoop=1;jettySize=auto;html=1;strokeColor=default;align=center;verticalAlign=middle;fontFamily=Helvetica;fontSize=11;fontColor=default;labelBackgroundColor=default;startFill=0;endArrow=none;" parent="1" source="r3jI4kVJCW_O9kqCM0ux-1" target="gtdDrDpF2fp0HaRPqQNc-45" edge="1">
          <mxGeometry relative="1" as="geometry" />
        </mxCell>
        <mxCell id="r3jI4kVJCW_O9kqCM0ux-1" value="USUARIOS" style="rounded=0;whiteSpace=wrap;html=1;labelBackgroundColor=none;fillColor=#182E3E;strokeColor=#FFFFFF;fontColor=#FFFFFF;" parent="1" vertex="1">
          <mxGeometry x="90" y="140" width="100" height="40" as="geometry" />
        </mxCell>
        <mxCell id="DwEf8eSOwPUIhdM9aCwx-5" style="edgeStyle=none;shape=connector;rounded=0;orthogonalLoop=1;jettySize=auto;html=1;strokeColor=default;align=center;verticalAlign=middle;fontFamily=Helvetica;fontSize=11;fontColor=default;labelBackgroundColor=default;startFill=0;endArrow=none;" parent="1" source="r3jI4kVJCW_O9kqCM0ux-2" target="gtdDrDpF2fp0HaRPqQNc-56" edge="1">
          <mxGeometry relative="1" as="geometry" />
        </mxCell>
        <mxCell id="DwEf8eSOwPUIhdM9aCwx-7" style="edgeStyle=none;shape=connector;rounded=0;orthogonalLoop=1;jettySize=auto;html=1;strokeColor=default;align=center;verticalAlign=middle;fontFamily=Helvetica;fontSize=11;fontColor=default;labelBackgroundColor=default;startFill=0;endArrow=none;" parent="1" source="r3jI4kVJCW_O9kqCM0ux-2" target="HAcypJSCf2gLi9Ap9_8L-14" edge="1">
          <mxGeometry relative="1" as="geometry" />
        </mxCell>
        <mxCell id="DwEf8eSOwPUIhdM9aCwx-9" style="edgeStyle=none;shape=connector;rounded=0;orthogonalLoop=1;jettySize=auto;html=1;strokeColor=default;align=center;verticalAlign=middle;fontFamily=Helvetica;fontSize=11;fontColor=default;labelBackgroundColor=default;startFill=0;endArrow=none;" parent="1" source="r3jI4kVJCW_O9kqCM0ux-2" target="-AG6pjj3mgd1ybfmxxWT-1" edge="1">
          <mxGeometry relative="1" as="geometry" />
        </mxCell>
        <mxCell id="DwEf8eSOwPUIhdM9aCwx-35" style="edgeStyle=none;shape=connector;rounded=0;orthogonalLoop=1;jettySize=auto;html=1;strokeColor=default;align=center;verticalAlign=middle;fontFamily=Helvetica;fontSize=11;fontColor=default;labelBackgroundColor=default;startFill=0;endArrow=none;" parent="1" source="r3jI4kVJCW_O9kqCM0ux-2" target="HAcypJSCf2gLi9Ap9_8L-8" edge="1">
          <mxGeometry relative="1" as="geometry" />
        </mxCell>
        <mxCell id="r3jI4kVJCW_O9kqCM0ux-2" value="MAZOS" style="rounded=0;whiteSpace=wrap;html=1;labelBackgroundColor=none;fillColor=#182E3E;strokeColor=#FFFFFF;fontColor=#FFFFFF;" parent="1" vertex="1">
          <mxGeometry x="450" y="140" width="100" height="40" as="geometry" />
        </mxCell>
        <mxCell id="DwEf8eSOwPUIhdM9aCwx-10" style="edgeStyle=none;shape=connector;rounded=0;orthogonalLoop=1;jettySize=auto;html=1;strokeColor=default;align=center;verticalAlign=middle;fontFamily=Helvetica;fontSize=11;fontColor=default;labelBackgroundColor=default;startFill=0;endArrow=none;" parent="1" source="r3jI4kVJCW_O9kqCM0ux-4" target="gtdDrDpF2fp0HaRPqQNc-74" edge="1">
          <mxGeometry relative="1" as="geometry" />
        </mxCell>
        <mxCell id="DwEf8eSOwPUIhdM9aCwx-11" style="edgeStyle=none;shape=connector;rounded=0;orthogonalLoop=1;jettySize=auto;html=1;strokeColor=default;align=center;verticalAlign=middle;fontFamily=Helvetica;fontSize=11;fontColor=default;labelBackgroundColor=default;startFill=0;endArrow=none;" parent="1" source="r3jI4kVJCW_O9kqCM0ux-4" target="-AG6pjj3mgd1ybfmxxWT-6" edge="1">
          <mxGeometry relative="1" as="geometry" />
        </mxCell>
        <mxCell id="DwEf8eSOwPUIhdM9aCwx-12" style="edgeStyle=none;shape=connector;rounded=0;orthogonalLoop=1;jettySize=auto;html=1;strokeColor=default;align=center;verticalAlign=middle;fontFamily=Helvetica;fontSize=11;fontColor=default;labelBackgroundColor=default;startFill=0;endArrow=none;" parent="1" source="r3jI4kVJCW_O9kqCM0ux-4" target="gtdDrDpF2fp0HaRPqQNc-9" edge="1">
          <mxGeometry relative="1" as="geometry" />
        </mxCell>
        <mxCell id="DwEf8eSOwPUIhdM9aCwx-13" style="edgeStyle=none;shape=connector;rounded=0;orthogonalLoop=1;jettySize=auto;html=1;strokeColor=default;align=center;verticalAlign=middle;fontFamily=Helvetica;fontSize=11;fontColor=default;labelBackgroundColor=default;startFill=0;endArrow=none;" parent="1" source="r3jI4kVJCW_O9kqCM0ux-4" target="gtdDrDpF2fp0HaRPqQNc-13" edge="1">
          <mxGeometry relative="1" as="geometry" />
        </mxCell>
        <mxCell id="DwEf8eSOwPUIhdM9aCwx-14" style="edgeStyle=none;shape=connector;rounded=0;orthogonalLoop=1;jettySize=auto;html=1;strokeColor=default;align=center;verticalAlign=middle;fontFamily=Helvetica;fontSize=11;fontColor=default;labelBackgroundColor=default;startFill=0;endArrow=none;" parent="1" source="r3jI4kVJCW_O9kqCM0ux-4" target="gtdDrDpF2fp0HaRPqQNc-17" edge="1">
          <mxGeometry relative="1" as="geometry" />
        </mxCell>
        <mxCell id="DwEf8eSOwPUIhdM9aCwx-16" style="edgeStyle=none;shape=connector;rounded=0;orthogonalLoop=1;jettySize=auto;html=1;strokeColor=default;align=center;verticalAlign=middle;fontFamily=Helvetica;fontSize=11;fontColor=default;labelBackgroundColor=default;startFill=0;endArrow=none;" parent="1" source="r3jI4kVJCW_O9kqCM0ux-4" target="DwEf8eSOwPUIhdM9aCwx-15" edge="1">
          <mxGeometry relative="1" as="geometry" />
        </mxCell>
        <mxCell id="DwEf8eSOwPUIhdM9aCwx-17" style="edgeStyle=none;shape=connector;rounded=0;orthogonalLoop=1;jettySize=auto;html=1;strokeColor=default;align=center;verticalAlign=middle;fontFamily=Helvetica;fontSize=11;fontColor=default;labelBackgroundColor=default;startFill=0;endArrow=none;" parent="1" source="r3jI4kVJCW_O9kqCM0ux-4" target="gtdDrDpF2fp0HaRPqQNc-19" edge="1">
          <mxGeometry relative="1" as="geometry" />
        </mxCell>
        <mxCell id="DwEf8eSOwPUIhdM9aCwx-18" style="edgeStyle=none;shape=connector;rounded=0;orthogonalLoop=1;jettySize=auto;html=1;strokeColor=default;align=center;verticalAlign=middle;fontFamily=Helvetica;fontSize=11;fontColor=default;labelBackgroundColor=default;startFill=0;endArrow=none;" parent="1" source="r3jI4kVJCW_O9kqCM0ux-4" target="gtdDrDpF2fp0HaRPqQNc-11" edge="1">
          <mxGeometry relative="1" as="geometry" />
        </mxCell>
        <mxCell id="DwEf8eSOwPUIhdM9aCwx-19" style="edgeStyle=none;shape=connector;rounded=0;orthogonalLoop=1;jettySize=auto;html=1;strokeColor=default;align=center;verticalAlign=middle;fontFamily=Helvetica;fontSize=11;fontColor=default;labelBackgroundColor=default;startFill=0;endArrow=none;" parent="1" source="r3jI4kVJCW_O9kqCM0ux-4" target="HAcypJSCf2gLi9Ap9_8L-20" edge="1">
          <mxGeometry relative="1" as="geometry" />
        </mxCell>
        <mxCell id="DwEf8eSOwPUIhdM9aCwx-20" style="edgeStyle=none;shape=connector;rounded=0;orthogonalLoop=1;jettySize=auto;html=1;strokeColor=default;align=center;verticalAlign=middle;fontFamily=Helvetica;fontSize=11;fontColor=default;labelBackgroundColor=default;startFill=0;endArrow=none;" parent="1" source="r3jI4kVJCW_O9kqCM0ux-4" target="-AG6pjj3mgd1ybfmxxWT-4" edge="1">
          <mxGeometry relative="1" as="geometry" />
        </mxCell>
        <mxCell id="DwEf8eSOwPUIhdM9aCwx-21" style="edgeStyle=none;shape=connector;rounded=0;orthogonalLoop=1;jettySize=auto;html=1;strokeColor=default;align=center;verticalAlign=middle;fontFamily=Helvetica;fontSize=11;fontColor=default;labelBackgroundColor=default;startFill=0;endArrow=none;" parent="1" source="r3jI4kVJCW_O9kqCM0ux-4" target="gtdDrDpF2fp0HaRPqQNc-21" edge="1">
          <mxGeometry relative="1" as="geometry" />
        </mxCell>
        <mxCell id="DwEf8eSOwPUIhdM9aCwx-22" style="edgeStyle=none;shape=connector;rounded=0;orthogonalLoop=1;jettySize=auto;html=1;strokeColor=default;align=center;verticalAlign=middle;fontFamily=Helvetica;fontSize=11;fontColor=default;labelBackgroundColor=default;startFill=0;endArrow=none;" parent="1" source="r3jI4kVJCW_O9kqCM0ux-4" target="gtdDrDpF2fp0HaRPqQNc-25" edge="1">
          <mxGeometry relative="1" as="geometry" />
        </mxCell>
        <mxCell id="DwEf8eSOwPUIhdM9aCwx-23" style="edgeStyle=none;shape=connector;rounded=0;orthogonalLoop=1;jettySize=auto;html=1;strokeColor=default;align=center;verticalAlign=middle;fontFamily=Helvetica;fontSize=11;fontColor=default;labelBackgroundColor=default;startFill=0;endArrow=none;" parent="1" source="r3jI4kVJCW_O9kqCM0ux-4" target="gtdDrDpF2fp0HaRPqQNc-30" edge="1">
          <mxGeometry relative="1" as="geometry" />
        </mxCell>
        <mxCell id="DwEf8eSOwPUIhdM9aCwx-24" style="edgeStyle=none;shape=connector;rounded=0;orthogonalLoop=1;jettySize=auto;html=1;strokeColor=default;align=center;verticalAlign=middle;fontFamily=Helvetica;fontSize=11;fontColor=default;labelBackgroundColor=default;startFill=0;endArrow=none;" parent="1" source="r3jI4kVJCW_O9kqCM0ux-4" target="gtdDrDpF2fp0HaRPqQNc-36" edge="1">
          <mxGeometry relative="1" as="geometry" />
        </mxCell>
        <mxCell id="DwEf8eSOwPUIhdM9aCwx-25" style="edgeStyle=none;shape=connector;rounded=0;orthogonalLoop=1;jettySize=auto;html=1;strokeColor=default;align=center;verticalAlign=middle;fontFamily=Helvetica;fontSize=11;fontColor=default;labelBackgroundColor=default;startFill=0;endArrow=none;" parent="1" source="r3jI4kVJCW_O9kqCM0ux-4" target="gtdDrDpF2fp0HaRPqQNc-32" edge="1">
          <mxGeometry relative="1" as="geometry" />
        </mxCell>
        <mxCell id="r3jI4kVJCW_O9kqCM0ux-4" value="CARTAS" style="rounded=0;whiteSpace=wrap;html=1;labelBackgroundColor=none;fillColor=#182E3E;strokeColor=#FFFFFF;fontColor=#FFFFFF;" parent="1" vertex="1">
          <mxGeometry x="450" y="390" width="100" height="40" as="geometry" />
        </mxCell>
        <mxCell id="r3jI4kVJCW_O9kqCM0ux-5" value="POSEE" style="rhombus;whiteSpace=wrap;html=1;labelBackgroundColor=none;fillColor=#182E3E;strokeColor=#FFFFFF;fontColor=#FFFFFF;" parent="1" vertex="1">
          <mxGeometry x="280" y="130" width="65" height="60" as="geometry" />
        </mxCell>
        <mxCell id="DwEf8eSOwPUIhdM9aCwx-39" style="edgeStyle=none;shape=connector;rounded=0;orthogonalLoop=1;jettySize=auto;html=1;strokeColor=default;align=center;verticalAlign=middle;fontFamily=Helvetica;fontSize=11;fontColor=default;labelBackgroundColor=default;startFill=0;endArrow=none;" parent="1" source="r3jI4kVJCW_O9kqCM0ux-6" target="DwEf8eSOwPUIhdM9aCwx-36" edge="1">
          <mxGeometry relative="1" as="geometry" />
        </mxCell>
        <mxCell id="r3jI4kVJCW_O9kqCM0ux-6" value="MAZOS_&lt;span style=&quot;background-color: transparent; color: light-dark(rgb(255, 255, 255), rgb(18, 18, 18));&quot;&gt;CARTAS&lt;/span&gt;" style="rhombus;whiteSpace=wrap;html=1;labelBackgroundColor=none;fillColor=#182E3E;strokeColor=#FFFFFF;fontColor=#FFFFFF;" parent="1" vertex="1">
          <mxGeometry x="443.13" y="240" width="113.75" height="90" as="geometry" />
        </mxCell>
        <mxCell id="r3jI4kVJCW_O9kqCM0ux-7" value="1" style="endArrow=none;html=1;rounded=0;exitX=1;exitY=0.5;exitDx=0;exitDy=0;entryX=0;entryY=0.5;entryDx=0;entryDy=0;labelBackgroundColor=none;strokeColor=#23445D;fontColor=default;" parent="1" source="r3jI4kVJCW_O9kqCM0ux-1" target="r3jI4kVJCW_O9kqCM0ux-5" edge="1">
          <mxGeometry x="0.1111" y="10" width="50" height="50" relative="1" as="geometry">
            <mxPoint x="160" y="280" as="sourcePoint" />
            <mxPoint x="210" y="230" as="targetPoint" />
            <mxPoint as="offset" />
          </mxGeometry>
        </mxCell>
        <mxCell id="r3jI4kVJCW_O9kqCM0ux-8" value="" style="endArrow=none;html=1;rounded=0;exitX=1;exitY=0.5;exitDx=0;exitDy=0;entryX=0;entryY=0.5;entryDx=0;entryDy=0;labelBackgroundColor=none;strokeColor=#23445D;fontColor=default;" parent="1" source="7HJ9re4brfrEqBqOHvMU-12" target="r3jI4kVJCW_O9kqCM0ux-2" edge="1">
          <mxGeometry width="50" height="50" relative="1" as="geometry">
            <mxPoint x="290" y="300" as="sourcePoint" />
            <mxPoint x="340" y="250" as="targetPoint" />
          </mxGeometry>
        </mxCell>
        <mxCell id="r3jI4kVJCW_O9kqCM0ux-9" value="" style="endArrow=none;html=1;rounded=0;entryX=0.5;entryY=1;entryDx=0;entryDy=0;labelBackgroundColor=none;strokeColor=#23445D;fontColor=default;" parent="1" source="r3jI4kVJCW_O9kqCM0ux-6" target="r3jI4kVJCW_O9kqCM0ux-2" edge="1">
          <mxGeometry width="50" height="50" relative="1" as="geometry">
            <mxPoint x="140" y="380" as="sourcePoint" />
            <mxPoint x="190" y="330" as="targetPoint" />
          </mxGeometry>
        </mxCell>
        <mxCell id="r3jI4kVJCW_O9kqCM0ux-10" value="" style="endArrow=none;html=1;rounded=0;entryX=0.5;entryY=1;entryDx=0;entryDy=0;labelBackgroundColor=none;strokeColor=#23445D;fontColor=default;" parent="1" source="r3jI4kVJCW_O9kqCM0ux-4" target="r3jI4kVJCW_O9kqCM0ux-6" edge="1">
          <mxGeometry width="50" height="50" relative="1" as="geometry">
            <mxPoint x="350" y="340" as="sourcePoint" />
            <mxPoint x="400" y="290" as="targetPoint" />
          </mxGeometry>
        </mxCell>
        <mxCell id="r3jI4kVJCW_O9kqCM0ux-23" value="&lt;u&gt;IDUSUARIO&lt;/u&gt;" style="ellipse;whiteSpace=wrap;html=1;direction=south;labelBackgroundColor=none;fillColor=#182E3E;strokeColor=#FFFFFF;fontColor=#FFFFFF;" parent="1" vertex="1">
          <mxGeometry x="135" y="15" width="110" height="50" as="geometry" />
        </mxCell>
        <mxCell id="r3jI4kVJCW_O9kqCM0ux-24" style="edgeStyle=orthogonalEdgeStyle;rounded=0;orthogonalLoop=1;jettySize=auto;html=1;exitX=1;exitY=0.5;exitDx=0;exitDy=0;labelBackgroundColor=none;strokeColor=#23445D;fontColor=default;" parent="1" source="r3jI4kVJCW_O9kqCM0ux-23" target="r3jI4kVJCW_O9kqCM0ux-23" edge="1">
          <mxGeometry relative="1" as="geometry" />
        </mxCell>
        <mxCell id="r3jI4kVJCW_O9kqCM0ux-25" value="EMAIL" style="ellipse;whiteSpace=wrap;html=1;direction=south;labelBackgroundColor=none;fillColor=#182E3E;strokeColor=#FFFFFF;fontColor=#FFFFFF;" parent="1" vertex="1">
          <mxGeometry x="-60" y="210" width="60" height="40" as="geometry" />
        </mxCell>
        <mxCell id="r3jI4kVJCW_O9kqCM0ux-27" style="edgeStyle=orthogonalEdgeStyle;rounded=0;orthogonalLoop=1;jettySize=auto;html=1;exitX=1;exitY=0.5;exitDx=0;exitDy=0;labelBackgroundColor=none;strokeColor=#23445D;fontColor=default;" parent="1" source="r3jI4kVJCW_O9kqCM0ux-25" target="r3jI4kVJCW_O9kqCM0ux-25" edge="1">
          <mxGeometry relative="1" as="geometry" />
        </mxCell>
        <mxCell id="r3jI4kVJCW_O9kqCM0ux-28" value="NOMBRE" style="ellipse;whiteSpace=wrap;html=1;direction=south;labelBackgroundColor=none;fillColor=#182E3E;strokeColor=#FFFFFF;fontColor=#FFFFFF;" parent="1" vertex="1">
          <mxGeometry x="65" y="20" width="60" height="40" as="geometry" />
        </mxCell>
        <mxCell id="r3jI4kVJCW_O9kqCM0ux-30" style="edgeStyle=orthogonalEdgeStyle;rounded=0;orthogonalLoop=1;jettySize=auto;html=1;exitX=1;exitY=0.5;exitDx=0;exitDy=0;labelBackgroundColor=none;strokeColor=#23445D;fontColor=default;" parent="1" source="r3jI4kVJCW_O9kqCM0ux-28" target="r3jI4kVJCW_O9kqCM0ux-28" edge="1">
          <mxGeometry relative="1" as="geometry" />
        </mxCell>
        <mxCell id="HAcypJSCf2gLi9Ap9_8L-8" value="NOMBREMAZO" style="ellipse;whiteSpace=wrap;html=1;direction=south;labelBackgroundColor=none;fillColor=#182E3E;strokeColor=#FFFFFF;fontColor=#FFFFFF;" parent="1" vertex="1">
          <mxGeometry x="557.75" y="35" width="100" height="65" as="geometry" />
        </mxCell>
        <mxCell id="HAcypJSCf2gLi9Ap9_8L-10" style="edgeStyle=orthogonalEdgeStyle;rounded=0;orthogonalLoop=1;jettySize=auto;html=1;exitX=1;exitY=0.5;exitDx=0;exitDy=0;labelBackgroundColor=none;strokeColor=#23445D;fontColor=default;" parent="1" source="HAcypJSCf2gLi9Ap9_8L-8" target="HAcypJSCf2gLi9Ap9_8L-8" edge="1">
          <mxGeometry relative="1" as="geometry" />
        </mxCell>
        <mxCell id="HAcypJSCf2gLi9Ap9_8L-14" value="&lt;u&gt;IDMAZO&lt;/u&gt;" style="ellipse;whiteSpace=wrap;html=1;direction=south;labelBackgroundColor=none;fillColor=#182E3E;strokeColor=#FFFFFF;fontColor=#FFFFFF;" parent="1" vertex="1">
          <mxGeometry x="470" y="47.5" width="60" height="40" as="geometry" />
        </mxCell>
        <mxCell id="HAcypJSCf2gLi9Ap9_8L-16" style="edgeStyle=orthogonalEdgeStyle;rounded=0;orthogonalLoop=1;jettySize=auto;html=1;exitX=1;exitY=0.5;exitDx=0;exitDy=0;labelBackgroundColor=none;strokeColor=#23445D;fontColor=default;" parent="1" source="HAcypJSCf2gLi9Ap9_8L-14" target="HAcypJSCf2gLi9Ap9_8L-14" edge="1">
          <mxGeometry relative="1" as="geometry" />
        </mxCell>
        <mxCell id="HAcypJSCf2gLi9Ap9_8L-20" value="TIPO" style="ellipse;whiteSpace=wrap;html=1;direction=south;labelBackgroundColor=none;fillColor=#182E3E;strokeColor=#FFFFFF;fontColor=#FFFFFF;" parent="1" vertex="1">
          <mxGeometry x="405" y="655" width="60" height="40" as="geometry" />
        </mxCell>
        <mxCell id="HAcypJSCf2gLi9Ap9_8L-21" style="edgeStyle=orthogonalEdgeStyle;rounded=0;orthogonalLoop=1;jettySize=auto;html=1;exitX=1;exitY=0.5;exitDx=0;exitDy=0;labelBackgroundColor=none;strokeColor=#23445D;fontColor=default;" parent="1" source="HAcypJSCf2gLi9Ap9_8L-20" target="HAcypJSCf2gLi9Ap9_8L-20" edge="1">
          <mxGeometry relative="1" as="geometry" />
        </mxCell>
        <mxCell id="7HJ9re4brfrEqBqOHvMU-8" value="N" style="text;html=1;align=center;verticalAlign=middle;whiteSpace=wrap;rounded=0;labelBackgroundColor=none;" parent="1" vertex="1">
          <mxGeometry x="370" y="135" width="60" height="30" as="geometry" />
        </mxCell>
        <mxCell id="7HJ9re4brfrEqBqOHvMU-9" value="N" style="text;html=1;align=center;verticalAlign=middle;whiteSpace=wrap;rounded=0;labelBackgroundColor=none;" parent="1" vertex="1">
          <mxGeometry x="490" y="210" width="60" height="30" as="geometry" />
        </mxCell>
        <mxCell id="7HJ9re4brfrEqBqOHvMU-13" value="" style="endArrow=none;html=1;rounded=0;exitX=1;exitY=0.5;exitDx=0;exitDy=0;entryX=0;entryY=0.5;entryDx=0;entryDy=0;labelBackgroundColor=none;strokeColor=#23445D;fontColor=default;" parent="1" source="r3jI4kVJCW_O9kqCM0ux-5" target="7HJ9re4brfrEqBqOHvMU-12" edge="1">
          <mxGeometry width="50" height="50" relative="1" as="geometry">
            <mxPoint x="340" y="160" as="sourcePoint" />
            <mxPoint x="450" y="160" as="targetPoint" />
          </mxGeometry>
        </mxCell>
        <mxCell id="7HJ9re4brfrEqBqOHvMU-12" value="" style="ellipse;whiteSpace=wrap;html=1;aspect=fixed;labelBackgroundColor=none;fillColor=#182E3E;strokeColor=#FFFFFF;fontColor=#FFFFFF;" parent="1" vertex="1">
          <mxGeometry x="345" y="152.5" width="15" height="15" as="geometry" />
        </mxCell>
        <mxCell id="-AG6pjj3mgd1ybfmxxWT-1" value="CLASE" style="ellipse;whiteSpace=wrap;html=1;direction=south;labelBackgroundColor=none;fillColor=#182E3E;strokeColor=#FFFFFF;fontColor=#FFFFFF;" parent="1" vertex="1">
          <mxGeometry x="615" y="112.5" width="60" height="40" as="geometry" />
        </mxCell>
        <mxCell id="-AG6pjj3mgd1ybfmxxWT-2" style="edgeStyle=orthogonalEdgeStyle;rounded=0;orthogonalLoop=1;jettySize=auto;html=1;exitX=1;exitY=0.5;exitDx=0;exitDy=0;labelBackgroundColor=none;strokeColor=#23445D;fontColor=default;" parent="1" source="-AG6pjj3mgd1ybfmxxWT-1" target="-AG6pjj3mgd1ybfmxxWT-1" edge="1">
          <mxGeometry relative="1" as="geometry" />
        </mxCell>
        <mxCell id="-AG6pjj3mgd1ybfmxxWT-4" value="ESCUELA&lt;span style=&quot;background-color: transparent; color: light-dark(rgb(255, 255, 255), rgb(18, 18, 18));&quot;&gt;HECHIZO&lt;/span&gt;" style="ellipse;whiteSpace=wrap;html=1;direction=south;labelBackgroundColor=none;fillColor=#182E3E;strokeColor=#FFFFFF;fontColor=#FFFFFF;" parent="1" vertex="1">
          <mxGeometry x="270" y="650" width="120" height="50" as="geometry" />
        </mxCell>
        <mxCell id="-AG6pjj3mgd1ybfmxxWT-5" style="edgeStyle=orthogonalEdgeStyle;rounded=0;orthogonalLoop=1;jettySize=auto;html=1;exitX=1;exitY=0.5;exitDx=0;exitDy=0;labelBackgroundColor=none;strokeColor=#23445D;fontColor=default;" parent="1" source="-AG6pjj3mgd1ybfmxxWT-4" target="-AG6pjj3mgd1ybfmxxWT-4" edge="1">
          <mxGeometry relative="1" as="geometry" />
        </mxCell>
        <mxCell id="-AG6pjj3mgd1ybfmxxWT-6" value="NOMBRE" style="ellipse;whiteSpace=wrap;html=1;direction=south;labelBackgroundColor=none;fillColor=#182E3E;strokeColor=#FFFFFF;fontColor=#FFFFFF;" parent="1" vertex="1">
          <mxGeometry x="675" y="440" width="60" height="40" as="geometry" />
        </mxCell>
        <mxCell id="-AG6pjj3mgd1ybfmxxWT-13" value="DIRECCION" style="ellipse;whiteSpace=wrap;html=1;direction=south;labelBackgroundColor=none;fillColor=#182E3E;strokeColor=#FFFFFF;fontColor=#FFFFFF;" parent="1" vertex="1">
          <mxGeometry x="-100" y="60" width="100" height="65" as="geometry" />
        </mxCell>
        <mxCell id="-AG6pjj3mgd1ybfmxxWT-15" style="edgeStyle=orthogonalEdgeStyle;rounded=0;orthogonalLoop=1;jettySize=auto;html=1;exitX=1;exitY=0.5;exitDx=0;exitDy=0;labelBackgroundColor=none;strokeColor=#23445D;fontColor=default;" parent="1" source="-AG6pjj3mgd1ybfmxxWT-13" target="-AG6pjj3mgd1ybfmxxWT-13" edge="1">
          <mxGeometry relative="1" as="geometry" />
        </mxCell>
        <mxCell id="-AG6pjj3mgd1ybfmxxWT-28" value="N" style="text;html=1;align=center;verticalAlign=middle;whiteSpace=wrap;rounded=0;" parent="1" vertex="1">
          <mxGeometry x="490" y="345" width="60" height="30" as="geometry" />
        </mxCell>
        <mxCell id="-AG6pjj3mgd1ybfmxxWT-32" style="edgeStyle=orthogonalEdgeStyle;rounded=0;orthogonalLoop=1;jettySize=auto;html=1;exitX=1;exitY=0.5;exitDx=0;exitDy=0;labelBackgroundColor=none;strokeColor=#23445D;fontColor=default;" parent="1" edge="1">
          <mxGeometry relative="1" as="geometry">
            <mxPoint x="30" y="255" as="sourcePoint" />
            <mxPoint x="30" y="255" as="targetPoint" />
          </mxGeometry>
        </mxCell>
        <mxCell id="-AG6pjj3mgd1ybfmxxWT-33" style="edgeStyle=orthogonalEdgeStyle;rounded=0;orthogonalLoop=1;jettySize=auto;html=1;exitX=1;exitY=0.5;exitDx=0;exitDy=0;labelBackgroundColor=none;strokeColor=#23445D;fontColor=default;" parent="1" edge="1">
          <mxGeometry relative="1" as="geometry">
            <mxPoint x="15" y="255" as="sourcePoint" />
            <mxPoint x="15" y="255" as="targetPoint" />
          </mxGeometry>
        </mxCell>
        <mxCell id="-AG6pjj3mgd1ybfmxxWT-34" style="edgeStyle=orthogonalEdgeStyle;rounded=0;orthogonalLoop=1;jettySize=auto;html=1;exitX=1;exitY=0.5;exitDx=0;exitDy=0;labelBackgroundColor=none;strokeColor=#23445D;fontColor=default;" parent="1" edge="1">
          <mxGeometry relative="1" as="geometry">
            <mxPoint x="115" y="265" as="sourcePoint" />
            <mxPoint x="115" y="265" as="targetPoint" />
          </mxGeometry>
        </mxCell>
        <mxCell id="-AG6pjj3mgd1ybfmxxWT-35" value="DESCRIPCIONJUGADOR" style="ellipse;whiteSpace=wrap;html=1;direction=south;labelBackgroundColor=none;fillColor=#182E3E;strokeColor=#FFFFFF;fontColor=#FFFFFF;" parent="1" vertex="1">
          <mxGeometry x="-180" y="130" width="210" height="65" as="geometry" />
        </mxCell>
        <mxCell id="-AG6pjj3mgd1ybfmxxWT-36" style="edgeStyle=orthogonalEdgeStyle;rounded=0;orthogonalLoop=1;jettySize=auto;html=1;exitX=1;exitY=0.5;exitDx=0;exitDy=0;labelBackgroundColor=none;strokeColor=#23445D;fontColor=default;" parent="1" source="-AG6pjj3mgd1ybfmxxWT-35" target="-AG6pjj3mgd1ybfmxxWT-35" edge="1">
          <mxGeometry relative="1" as="geometry" />
        </mxCell>
        <mxCell id="gtdDrDpF2fp0HaRPqQNc-9" value="TEXTO" style="ellipse;whiteSpace=wrap;html=1;direction=south;labelBackgroundColor=none;fillColor=#182E3E;strokeColor=#FFFFFF;fontColor=#FFFFFF;" parent="1" vertex="1">
          <mxGeometry x="675" y="490" width="60" height="40" as="geometry" />
        </mxCell>
        <mxCell id="gtdDrDpF2fp0HaRPqQNc-10" style="edgeStyle=orthogonalEdgeStyle;rounded=0;orthogonalLoop=1;jettySize=auto;html=1;exitX=1;exitY=0.5;exitDx=0;exitDy=0;labelBackgroundColor=none;strokeColor=#23445D;fontColor=default;" parent="1" source="gtdDrDpF2fp0HaRPqQNc-9" target="gtdDrDpF2fp0HaRPqQNc-9" edge="1">
          <mxGeometry relative="1" as="geometry" />
        </mxCell>
        <mxCell id="gtdDrDpF2fp0HaRPqQNc-11" value="RAREZA" style="ellipse;whiteSpace=wrap;html=1;direction=south;labelBackgroundColor=none;fillColor=#182E3E;strokeColor=#FFFFFF;fontColor=#FFFFFF;" parent="1" vertex="1">
          <mxGeometry x="475" y="655" width="90" height="40" as="geometry" />
        </mxCell>
        <mxCell id="gtdDrDpF2fp0HaRPqQNc-12" style="edgeStyle=orthogonalEdgeStyle;rounded=0;orthogonalLoop=1;jettySize=auto;html=1;exitX=1;exitY=0.5;exitDx=0;exitDy=0;labelBackgroundColor=none;strokeColor=#23445D;fontColor=default;" parent="1" source="gtdDrDpF2fp0HaRPqQNc-11" target="gtdDrDpF2fp0HaRPqQNc-11" edge="1">
          <mxGeometry relative="1" as="geometry" />
        </mxCell>
        <mxCell id="gtdDrDpF2fp0HaRPqQNc-13" value="CLASE" style="ellipse;whiteSpace=wrap;html=1;direction=south;labelBackgroundColor=none;fillColor=#182E3E;strokeColor=#FFFFFF;fontColor=#FFFFFF;" parent="1" vertex="1">
          <mxGeometry x="675" y="545" width="60" height="40" as="geometry" />
        </mxCell>
        <mxCell id="gtdDrDpF2fp0HaRPqQNc-14" style="edgeStyle=orthogonalEdgeStyle;rounded=0;orthogonalLoop=1;jettySize=auto;html=1;exitX=1;exitY=0.5;exitDx=0;exitDy=0;labelBackgroundColor=none;strokeColor=#23445D;fontColor=default;" parent="1" source="gtdDrDpF2fp0HaRPqQNc-13" target="gtdDrDpF2fp0HaRPqQNc-13" edge="1">
          <mxGeometry relative="1" as="geometry" />
        </mxCell>
        <mxCell id="gtdDrDpF2fp0HaRPqQNc-16" style="edgeStyle=orthogonalEdgeStyle;rounded=0;orthogonalLoop=1;jettySize=auto;html=1;exitX=1;exitY=0.5;exitDx=0;exitDy=0;labelBackgroundColor=none;strokeColor=#23445D;fontColor=default;" parent="1" edge="1">
          <mxGeometry relative="1" as="geometry">
            <mxPoint x="375" y="345" as="sourcePoint" />
            <mxPoint x="375" y="345" as="targetPoint" />
          </mxGeometry>
        </mxCell>
        <mxCell id="gtdDrDpF2fp0HaRPqQNc-17" value="COSTE" style="ellipse;whiteSpace=wrap;html=1;direction=south;labelBackgroundColor=none;fillColor=#182E3E;strokeColor=#FFFFFF;fontColor=#FFFFFF;" parent="1" vertex="1">
          <mxGeometry x="675" y="600" width="60" height="40" as="geometry" />
        </mxCell>
        <mxCell id="gtdDrDpF2fp0HaRPqQNc-18" style="edgeStyle=orthogonalEdgeStyle;rounded=0;orthogonalLoop=1;jettySize=auto;html=1;exitX=1;exitY=0.5;exitDx=0;exitDy=0;labelBackgroundColor=none;strokeColor=#23445D;fontColor=default;" parent="1" source="gtdDrDpF2fp0HaRPqQNc-17" target="gtdDrDpF2fp0HaRPqQNc-17" edge="1">
          <mxGeometry relative="1" as="geometry" />
        </mxCell>
        <mxCell id="gtdDrDpF2fp0HaRPqQNc-19" value="VIDA" style="ellipse;whiteSpace=wrap;html=1;direction=south;labelBackgroundColor=none;fillColor=#182E3E;strokeColor=#FFFFFF;fontColor=#FFFFFF;" parent="1" vertex="1">
          <mxGeometry x="570" y="655" width="60" height="40" as="geometry" />
        </mxCell>
        <mxCell id="gtdDrDpF2fp0HaRPqQNc-20" style="edgeStyle=orthogonalEdgeStyle;rounded=0;orthogonalLoop=1;jettySize=auto;html=1;exitX=1;exitY=0.5;exitDx=0;exitDy=0;labelBackgroundColor=none;strokeColor=#23445D;fontColor=default;" parent="1" source="gtdDrDpF2fp0HaRPqQNc-19" target="gtdDrDpF2fp0HaRPqQNc-19" edge="1">
          <mxGeometry relative="1" as="geometry" />
        </mxCell>
        <mxCell id="gtdDrDpF2fp0HaRPqQNc-21" value="COLECCIONABLE" style="ellipse;whiteSpace=wrap;html=1;direction=south;labelBackgroundColor=none;fillColor=#182E3E;strokeColor=#FFFFFF;fontColor=#FFFFFF;" parent="1" vertex="1">
          <mxGeometry x="135" y="630" width="135" height="55" as="geometry" />
        </mxCell>
        <mxCell id="gtdDrDpF2fp0HaRPqQNc-22" style="edgeStyle=orthogonalEdgeStyle;rounded=0;orthogonalLoop=1;jettySize=auto;html=1;exitX=1;exitY=0.5;exitDx=0;exitDy=0;labelBackgroundColor=none;strokeColor=#23445D;fontColor=default;" parent="1" source="gtdDrDpF2fp0HaRPqQNc-21" target="gtdDrDpF2fp0HaRPqQNc-21" edge="1">
          <mxGeometry relative="1" as="geometry" />
        </mxCell>
        <mxCell id="gtdDrDpF2fp0HaRPqQNc-23" style="edgeStyle=orthogonalEdgeStyle;rounded=0;orthogonalLoop=1;jettySize=auto;html=1;exitX=1;exitY=0.5;exitDx=0;exitDy=0;labelBackgroundColor=none;strokeColor=#23445D;fontColor=default;" parent="1" edge="1">
          <mxGeometry relative="1" as="geometry">
            <mxPoint x="360" y="615" as="sourcePoint" />
            <mxPoint x="360" y="615" as="targetPoint" />
          </mxGeometry>
        </mxCell>
        <mxCell id="gtdDrDpF2fp0HaRPqQNc-24" style="edgeStyle=orthogonalEdgeStyle;rounded=0;orthogonalLoop=1;jettySize=auto;html=1;exitX=1;exitY=0.5;exitDx=0;exitDy=0;labelBackgroundColor=none;strokeColor=#23445D;fontColor=default;" parent="1" edge="1">
          <mxGeometry relative="1" as="geometry">
            <mxPoint x="450" y="585" as="sourcePoint" />
            <mxPoint x="450" y="585" as="targetPoint" />
          </mxGeometry>
        </mxCell>
        <mxCell id="gtdDrDpF2fp0HaRPqQNc-25" value="ARTISTA" style="ellipse;whiteSpace=wrap;html=1;direction=south;labelBackgroundColor=none;fillColor=#182E3E;strokeColor=#FFFFFF;fontColor=#FFFFFF;" parent="1" vertex="1">
          <mxGeometry x="157.5" y="574.5" width="90" height="40" as="geometry" />
        </mxCell>
        <mxCell id="gtdDrDpF2fp0HaRPqQNc-26" style="edgeStyle=orthogonalEdgeStyle;rounded=0;orthogonalLoop=1;jettySize=auto;html=1;exitX=1;exitY=0.5;exitDx=0;exitDy=0;labelBackgroundColor=none;strokeColor=#23445D;fontColor=default;" parent="1" source="gtdDrDpF2fp0HaRPqQNc-25" target="gtdDrDpF2fp0HaRPqQNc-25" edge="1">
          <mxGeometry relative="1" as="geometry" />
        </mxCell>
        <mxCell id="gtdDrDpF2fp0HaRPqQNc-27" style="edgeStyle=orthogonalEdgeStyle;rounded=0;orthogonalLoop=1;jettySize=auto;html=1;exitX=1;exitY=0.5;exitDx=0;exitDy=0;labelBackgroundColor=none;strokeColor=#23445D;fontColor=default;" parent="1" edge="1">
          <mxGeometry relative="1" as="geometry">
            <mxPoint x="420" y="585" as="sourcePoint" />
            <mxPoint x="420" y="585" as="targetPoint" />
          </mxGeometry>
        </mxCell>
        <mxCell id="gtdDrDpF2fp0HaRPqQNc-28" style="edgeStyle=orthogonalEdgeStyle;rounded=0;orthogonalLoop=1;jettySize=auto;html=1;exitX=1;exitY=0.5;exitDx=0;exitDy=0;labelBackgroundColor=none;strokeColor=#23445D;fontColor=default;" parent="1" edge="1">
          <mxGeometry relative="1" as="geometry">
            <mxPoint x="510" y="555" as="sourcePoint" />
            <mxPoint x="510" y="555" as="targetPoint" />
          </mxGeometry>
        </mxCell>
        <mxCell id="gtdDrDpF2fp0HaRPqQNc-30" value="SABOR" style="ellipse;whiteSpace=wrap;html=1;direction=south;labelBackgroundColor=none;fillColor=#182E3E;strokeColor=#FFFFFF;fontColor=#FFFFFF;" parent="1" vertex="1">
          <mxGeometry x="170" y="518.5" width="60" height="40" as="geometry" />
        </mxCell>
        <mxCell id="gtdDrDpF2fp0HaRPqQNc-31" style="edgeStyle=orthogonalEdgeStyle;rounded=0;orthogonalLoop=1;jettySize=auto;html=1;exitX=1;exitY=0.5;exitDx=0;exitDy=0;labelBackgroundColor=none;strokeColor=#23445D;fontColor=default;" parent="1" source="gtdDrDpF2fp0HaRPqQNc-30" target="gtdDrDpF2fp0HaRPqQNc-30" edge="1">
          <mxGeometry relative="1" as="geometry" />
        </mxCell>
        <mxCell id="gtdDrDpF2fp0HaRPqQNc-32" value="DBFID" style="ellipse;whiteSpace=wrap;html=1;direction=south;labelBackgroundColor=none;fillColor=#182E3E;strokeColor=#FFFFFF;fontColor=#FFFFFF;" parent="1" vertex="1">
          <mxGeometry x="170" y="404.5" width="60" height="45" as="geometry" />
        </mxCell>
        <mxCell id="gtdDrDpF2fp0HaRPqQNc-33" style="edgeStyle=orthogonalEdgeStyle;rounded=0;orthogonalLoop=1;jettySize=auto;html=1;exitX=1;exitY=0.5;exitDx=0;exitDy=0;labelBackgroundColor=none;strokeColor=#23445D;fontColor=default;" parent="1" source="gtdDrDpF2fp0HaRPqQNc-32" target="gtdDrDpF2fp0HaRPqQNc-32" edge="1">
          <mxGeometry relative="1" as="geometry" />
        </mxCell>
        <mxCell id="gtdDrDpF2fp0HaRPqQNc-35" style="edgeStyle=orthogonalEdgeStyle;rounded=0;orthogonalLoop=1;jettySize=auto;html=1;exitX=1;exitY=0.5;exitDx=0;exitDy=0;labelBackgroundColor=none;strokeColor=#23445D;fontColor=default;" parent="1" edge="1">
          <mxGeometry relative="1" as="geometry">
            <mxPoint x="330" y="630" as="sourcePoint" />
            <mxPoint x="330" y="630" as="targetPoint" />
          </mxGeometry>
        </mxCell>
        <mxCell id="gtdDrDpF2fp0HaRPqQNc-36" value="SET&lt;span style=&quot;background-color: transparent; color: light-dark(rgb(255, 255, 255), rgb(18, 18, 18));&quot;&gt;CARTA&lt;/span&gt;" style="ellipse;whiteSpace=wrap;html=1;direction=south;labelBackgroundColor=none;fillColor=#182E3E;strokeColor=#FFFFFF;fontColor=#FFFFFF;" parent="1" vertex="1">
          <mxGeometry x="157.5" y="459.5" width="90" height="40" as="geometry" />
        </mxCell>
        <mxCell id="gtdDrDpF2fp0HaRPqQNc-37" style="edgeStyle=orthogonalEdgeStyle;rounded=0;orthogonalLoop=1;jettySize=auto;html=1;exitX=1;exitY=0.5;exitDx=0;exitDy=0;labelBackgroundColor=none;strokeColor=#23445D;fontColor=default;" parent="1" source="gtdDrDpF2fp0HaRPqQNc-36" target="gtdDrDpF2fp0HaRPqQNc-36" edge="1">
          <mxGeometry relative="1" as="geometry" />
        </mxCell>
        <mxCell id="gtdDrDpF2fp0HaRPqQNc-38" style="edgeStyle=orthogonalEdgeStyle;rounded=0;orthogonalLoop=1;jettySize=auto;html=1;exitX=1;exitY=0.5;exitDx=0;exitDy=0;labelBackgroundColor=none;strokeColor=#23445D;fontColor=default;" parent="1" edge="1">
          <mxGeometry relative="1" as="geometry">
            <mxPoint x="662.25" y="630" as="sourcePoint" />
            <mxPoint x="662.25" y="630" as="targetPoint" />
          </mxGeometry>
        </mxCell>
        <mxCell id="gtdDrDpF2fp0HaRPqQNc-42" style="edgeStyle=orthogonalEdgeStyle;rounded=0;orthogonalLoop=1;jettySize=auto;html=1;exitX=1;exitY=0.5;exitDx=0;exitDy=0;labelBackgroundColor=none;strokeColor=#23445D;fontColor=default;" parent="1" edge="1">
          <mxGeometry relative="1" as="geometry">
            <mxPoint x="722.25" y="600" as="sourcePoint" />
            <mxPoint x="722.25" y="600" as="targetPoint" />
          </mxGeometry>
        </mxCell>
        <mxCell id="gtdDrDpF2fp0HaRPqQNc-43" style="edgeStyle=orthogonalEdgeStyle;rounded=0;orthogonalLoop=1;jettySize=auto;html=1;exitX=1;exitY=0.5;exitDx=0;exitDy=0;labelBackgroundColor=none;strokeColor=#23445D;fontColor=default;" parent="1" edge="1">
          <mxGeometry relative="1" as="geometry">
            <mxPoint x="812.25" y="570" as="sourcePoint" />
            <mxPoint x="812.25" y="570" as="targetPoint" />
          </mxGeometry>
        </mxCell>
        <mxCell id="gtdDrDpF2fp0HaRPqQNc-45" value="CONTRASENAHASH" style="ellipse;whiteSpace=wrap;html=1;direction=south;labelBackgroundColor=none;fillColor=#182E3E;strokeColor=#FFFFFF;fontColor=#FFFFFF;" parent="1" vertex="1">
          <mxGeometry x="30" y="210" width="140" height="60" as="geometry" />
        </mxCell>
        <mxCell id="gtdDrDpF2fp0HaRPqQNc-46" style="edgeStyle=orthogonalEdgeStyle;rounded=0;orthogonalLoop=1;jettySize=auto;html=1;exitX=1;exitY=0.5;exitDx=0;exitDy=0;labelBackgroundColor=none;strokeColor=#23445D;fontColor=default;" parent="1" source="gtdDrDpF2fp0HaRPqQNc-45" target="gtdDrDpF2fp0HaRPqQNc-45" edge="1">
          <mxGeometry relative="1" as="geometry" />
        </mxCell>
        <mxCell id="gtdDrDpF2fp0HaRPqQNc-47" style="edgeStyle=orthogonalEdgeStyle;rounded=0;orthogonalLoop=1;jettySize=auto;html=1;exitX=1;exitY=0.5;exitDx=0;exitDy=0;labelBackgroundColor=none;strokeColor=#23445D;fontColor=default;" parent="1" edge="1">
          <mxGeometry relative="1" as="geometry">
            <mxPoint x="135" y="120" as="sourcePoint" />
            <mxPoint x="135" y="120" as="targetPoint" />
          </mxGeometry>
        </mxCell>
        <mxCell id="gtdDrDpF2fp0HaRPqQNc-48" style="edgeStyle=orthogonalEdgeStyle;rounded=0;orthogonalLoop=1;jettySize=auto;html=1;exitX=1;exitY=0.5;exitDx=0;exitDy=0;labelBackgroundColor=none;strokeColor=#23445D;fontColor=default;" parent="1" edge="1">
          <mxGeometry relative="1" as="geometry">
            <mxPoint x="225" y="90" as="sourcePoint" />
            <mxPoint x="225" y="90" as="targetPoint" />
          </mxGeometry>
        </mxCell>
        <mxCell id="gtdDrDpF2fp0HaRPqQNc-49" value="APELLIDO" style="ellipse;whiteSpace=wrap;html=1;direction=south;labelBackgroundColor=none;fillColor=#182E3E;strokeColor=#FFFFFF;fontColor=#FFFFFF;" parent="1" vertex="1">
          <mxGeometry x="-30" y="20" width="90" height="40" as="geometry" />
        </mxCell>
        <mxCell id="gtdDrDpF2fp0HaRPqQNc-50" style="edgeStyle=orthogonalEdgeStyle;rounded=0;orthogonalLoop=1;jettySize=auto;html=1;exitX=1;exitY=0.5;exitDx=0;exitDy=0;labelBackgroundColor=none;strokeColor=#23445D;fontColor=default;" parent="1" source="gtdDrDpF2fp0HaRPqQNc-49" target="gtdDrDpF2fp0HaRPqQNc-49" edge="1">
          <mxGeometry relative="1" as="geometry" />
        </mxCell>
        <mxCell id="gtdDrDpF2fp0HaRPqQNc-51" style="edgeStyle=orthogonalEdgeStyle;rounded=0;orthogonalLoop=1;jettySize=auto;html=1;exitX=1;exitY=0.5;exitDx=0;exitDy=0;labelBackgroundColor=none;strokeColor=#23445D;fontColor=default;" parent="1" edge="1">
          <mxGeometry relative="1" as="geometry">
            <mxPoint x="195" y="90" as="sourcePoint" />
            <mxPoint x="195" y="90" as="targetPoint" />
          </mxGeometry>
        </mxCell>
        <mxCell id="gtdDrDpF2fp0HaRPqQNc-52" style="edgeStyle=orthogonalEdgeStyle;rounded=0;orthogonalLoop=1;jettySize=auto;html=1;exitX=1;exitY=0.5;exitDx=0;exitDy=0;labelBackgroundColor=none;strokeColor=#23445D;fontColor=default;" parent="1" edge="1">
          <mxGeometry relative="1" as="geometry">
            <mxPoint x="285" y="60" as="sourcePoint" />
            <mxPoint x="285" y="60" as="targetPoint" />
          </mxGeometry>
        </mxCell>
        <mxCell id="gtdDrDpF2fp0HaRPqQNc-56" value="ES&lt;span style=&quot;background-color: transparent; color: light-dark(rgb(255, 255, 255), rgb(18, 18, 18));&quot;&gt;PREDETERMINADO&lt;/span&gt;" style="ellipse;whiteSpace=wrap;html=1;direction=south;labelBackgroundColor=none;fillColor=#182E3E;strokeColor=#FFFFFF;fontColor=#FFFFFF;" parent="1" vertex="1">
          <mxGeometry x="567.5" y="170" width="155" height="70" as="geometry" />
        </mxCell>
        <mxCell id="gtdDrDpF2fp0HaRPqQNc-59" style="edgeStyle=orthogonalEdgeStyle;rounded=0;orthogonalLoop=1;jettySize=auto;html=1;exitX=1;exitY=0.5;exitDx=0;exitDy=0;labelBackgroundColor=none;strokeColor=#23445D;fontColor=default;" parent="1" source="gtdDrDpF2fp0HaRPqQNc-56" target="gtdDrDpF2fp0HaRPqQNc-56" edge="1">
          <mxGeometry relative="1" as="geometry" />
        </mxCell>
        <mxCell id="gtdDrDpF2fp0HaRPqQNc-61" value="" style="endArrow=none;html=1;rounded=0;" parent="1" source="r3jI4kVJCW_O9kqCM0ux-1" target="gtdDrDpF2fp0HaRPqQNc-49" edge="1">
          <mxGeometry width="50" height="50" relative="1" as="geometry">
            <mxPoint x="130" y="260" as="sourcePoint" />
            <mxPoint x="180" y="210" as="targetPoint" />
          </mxGeometry>
        </mxCell>
        <mxCell id="gtdDrDpF2fp0HaRPqQNc-74" value="&lt;u&gt;ID&lt;/u&gt;&lt;u style=&quot;background-color: transparent; color: light-dark(rgb(255, 255, 255), rgb(18, 18, 18));&quot;&gt;CARTA&lt;/u&gt;" style="ellipse;whiteSpace=wrap;html=1;direction=south;labelBackgroundColor=none;fillColor=#182E3E;strokeColor=#FFFFFF;fontColor=#FFFFFF;" parent="1" vertex="1">
          <mxGeometry x="657.75" y="387.5" width="94.5" height="45" as="geometry" />
        </mxCell>
        <mxCell id="DwEf8eSOwPUIhdM9aCwx-15" value="ATAQUE" style="ellipse;whiteSpace=wrap;html=1;direction=south;labelBackgroundColor=none;fillColor=#182E3E;strokeColor=#FFFFFF;fontColor=#FFFFFF;" parent="1" vertex="1">
          <mxGeometry x="645" y="655" width="90" height="40" as="geometry" />
        </mxCell>
        <mxCell id="DwEf8eSOwPUIhdM9aCwx-32" value="ROL" style="ellipse;whiteSpace=wrap;html=1;direction=south;labelBackgroundColor=none;fillColor=#182E3E;strokeColor=#FFFFFF;fontColor=#FFFFFF;" parent="1" vertex="1">
          <mxGeometry x="190" y="217.5" width="70" height="45" as="geometry" />
        </mxCell>
        <mxCell id="DwEf8eSOwPUIhdM9aCwx-34" style="edgeStyle=none;shape=connector;rounded=0;orthogonalLoop=1;jettySize=auto;html=1;entryX=0.119;entryY=0.76;entryDx=0;entryDy=0;entryPerimeter=0;strokeColor=default;align=center;verticalAlign=middle;fontFamily=Helvetica;fontSize=11;fontColor=default;labelBackgroundColor=default;startFill=0;endArrow=none;" parent="1" source="r3jI4kVJCW_O9kqCM0ux-1" target="DwEf8eSOwPUIhdM9aCwx-32" edge="1">
          <mxGeometry relative="1" as="geometry" />
        </mxCell>
        <mxCell id="DwEf8eSOwPUIhdM9aCwx-36" value="CANTIDAD" style="ellipse;whiteSpace=wrap;html=1;direction=south;labelBackgroundColor=none;fillColor=#182E3E;strokeColor=#FFFFFF;fontColor=#FFFFFF;" parent="1" vertex="1">
          <mxGeometry x="282.25" y="250" width="107.75" height="70" as="geometry" />
        </mxCell>
      </root>
    </mxGraphModel>
  </diagram>
</mxfile>
